<mxfile host="app.diagrams.net" modified="2024-01-25T14:43:01.468Z" agent="Mozilla/5.0 (Macintosh; Intel Mac OS X 10_15_7) AppleWebKit/537.36 (KHTML, like Gecko) Chrome/118.0.0.0 Safari/537.36 Edg/118.0.2088.57" etag="DppIsn7KlgGpRUCbNmbj" version="23.0.0" type="github">
  <diagram name="第 1 页" id="yZunspwBwA8Hu7tk7gx-">
    <mxGraphModel dx="1924" dy="1577" grid="0" gridSize="10" guides="1" tooltips="1" connect="1" arrows="1" fold="1" page="0" pageScale="1" pageWidth="827" pageHeight="1169" math="0" shadow="0">
      <root>
        <mxCell id="0" />
        <mxCell id="1" parent="0" />
        <mxCell id="CTEW_f1p-4XAKWupYN5k-1" value="HelmNativeValues" style="swimlane;fontStyle=1;align=center;verticalAlign=top;childLayout=stackLayout;horizontal=1;startSize=29;horizontalStack=0;resizeParent=1;resizeParentMax=0;resizeLast=0;collapsible=1;marginBottom=0;whiteSpace=wrap;html=1;" vertex="1" parent="1">
          <mxGeometry x="-3" y="-750" width="191" height="145" as="geometry" />
        </mxCell>
        <mxCell id="CTEW_f1p-4XAKWupYN5k-2" value="+ ChartName: string&lt;br&gt;+ ChartVersion:string&lt;br&gt;+ AppVersion:string&lt;br&gt;+ ReleaseName:string&lt;br&gt;+ ReleaseNamespace:string" style="text;strokeColor=none;fillColor=none;align=left;verticalAlign=top;spacingLeft=4;spacingRight=4;overflow=hidden;rotatable=0;points=[[0,0.5],[1,0.5]];portConstraint=eastwest;whiteSpace=wrap;html=1;" vertex="1" parent="CTEW_f1p-4XAKWupYN5k-1">
          <mxGeometry y="29" width="191" height="75" as="geometry" />
        </mxCell>
        <mxCell id="CTEW_f1p-4XAKWupYN5k-3" value="" style="line;strokeWidth=1;fillColor=none;align=left;verticalAlign=middle;spacingTop=-1;spacingLeft=3;spacingRight=3;rotatable=0;labelPosition=right;points=[];portConstraint=eastwest;strokeColor=inherit;" vertex="1" parent="CTEW_f1p-4XAKWupYN5k-1">
          <mxGeometry y="104" width="191" height="41" as="geometry" />
        </mxCell>
        <mxCell id="CTEW_f1p-4XAKWupYN5k-19" value="AppHelmValues" style="swimlane;fontStyle=1;align=center;verticalAlign=top;childLayout=stackLayout;horizontal=1;startSize=29;horizontalStack=0;resizeParent=1;resizeParentMax=0;resizeLast=0;collapsible=1;marginBottom=0;whiteSpace=wrap;html=1;" vertex="1" parent="1">
          <mxGeometry x="-109" y="-554" width="277" height="152" as="geometry" />
        </mxCell>
        <mxCell id="CTEW_f1p-4XAKWupYN5k-20" value="+ NativeValues:HelmNativeValues&lt;br&gt;+ Dependencies: Map[string]string&lt;br&gt;" style="text;strokeColor=none;fillColor=none;align=left;verticalAlign=top;spacingLeft=4;spacingRight=4;overflow=hidden;rotatable=0;points=[[0,0.5],[1,0.5]];portConstraint=eastwest;whiteSpace=wrap;html=1;" vertex="1" parent="CTEW_f1p-4XAKWupYN5k-19">
          <mxGeometry y="29" width="277" height="36" as="geometry" />
        </mxCell>
        <mxCell id="CTEW_f1p-4XAKWupYN5k-21" value="" style="line;strokeWidth=1;fillColor=none;align=left;verticalAlign=middle;spacingTop=-1;spacingLeft=3;spacingRight=3;rotatable=0;labelPosition=right;points=[];portConstraint=eastwest;strokeColor=inherit;" vertex="1" parent="CTEW_f1p-4XAKWupYN5k-19">
          <mxGeometry y="65" width="277" height="25" as="geometry" />
        </mxCell>
        <mxCell id="CTEW_f1p-4XAKWupYN5k-49" value="+ NewAppHelmValues()&lt;br style=&quot;border-color: var(--border-color); padding: 0px; margin: 0px;&quot;&gt;+ AddDependency(name: string, version: string)&lt;br style=&quot;border-color: var(--border-color); padding: 0px; margin: 0px;&quot;&gt;+ RemoveDependency(name: string)" style="text;strokeColor=none;fillColor=none;align=left;verticalAlign=top;spacingLeft=4;spacingRight=4;overflow=hidden;rotatable=0;points=[[0,0.5],[1,0.5]];portConstraint=eastwest;whiteSpace=wrap;html=1;" vertex="1" parent="CTEW_f1p-4XAKWupYN5k-19">
          <mxGeometry y="90" width="277" height="62" as="geometry" />
        </mxCell>
        <mxCell id="CTEW_f1p-4XAKWupYN5k-25" value="TranswarpChartUtil" style="swimlane;fontStyle=1;align=center;verticalAlign=top;childLayout=stackLayout;horizontal=1;startSize=29;horizontalStack=0;resizeParent=1;resizeParentMax=0;resizeLast=0;collapsible=1;marginBottom=0;whiteSpace=wrap;html=1;" vertex="1" parent="1">
          <mxGeometry x="312" y="-354" width="332" height="205" as="geometry" />
        </mxCell>
        <mxCell id="CTEW_f1p-4XAKWupYN5k-32" value="- commonTempkateDir:string&lt;br&gt;- transwarpJsonnetFileSuffix:string&lt;br&gt;- transwarpJsonnetTemplateDir:string&lt;br&gt;- commonTemplateFiles:map[string]string" style="text;strokeColor=none;fillColor=none;align=left;verticalAlign=top;spacingLeft=4;spacingRight=4;overflow=hidden;rotatable=0;points=[[0,0.5],[1,0.5]];portConstraint=eastwest;whiteSpace=wrap;html=1;" vertex="1" parent="CTEW_f1p-4XAKWupYN5k-25">
          <mxGeometry y="29" width="332" height="70" as="geometry" />
        </mxCell>
        <mxCell id="CTEW_f1p-4XAKWupYN5k-27" value="" style="line;strokeWidth=1;fillColor=none;align=left;verticalAlign=middle;spacingTop=-1;spacingLeft=3;spacingRight=3;rotatable=0;labelPosition=right;points=[];portConstraint=eastwest;strokeColor=inherit;" vertex="1" parent="CTEW_f1p-4XAKWupYN5k-25">
          <mxGeometry y="99" width="332" height="12" as="geometry" />
        </mxCell>
        <mxCell id="CTEW_f1p-4XAKWupYN5k-26" value="&lt;div&gt;+ loadFileFromDisks(baseDir: string): map[string]string&lt;/div&gt;&lt;div&gt;+ loadCommonJsonnetLib(templates: map[string]string)&lt;/div&gt;&lt;div&gt;+ processChart(...): void&lt;/div&gt;&lt;div&gt;+ buildAutoGenReleaseConfig(...): []byte&lt;/div&gt;&lt;div&gt;+ getUnwrappedNoRenderData(file: *chart.File): []byte&lt;/div&gt;" style="text;strokeColor=none;fillColor=none;align=left;verticalAlign=top;spacingLeft=4;spacingRight=4;overflow=hidden;rotatable=0;points=[[0,0.5],[1,0.5]];portConstraint=eastwest;whiteSpace=wrap;html=1;" vertex="1" parent="CTEW_f1p-4XAKWupYN5k-25">
          <mxGeometry y="111" width="332" height="94" as="geometry" />
        </mxCell>
        <mxCell id="CTEW_f1p-4XAKWupYN5k-28" value="TranswarpJsonnetUtil" style="swimlane;fontStyle=1;align=center;verticalAlign=top;childLayout=stackLayout;horizontal=1;startSize=29;horizontalStack=0;resizeParent=1;resizeParentMax=0;resizeLast=0;collapsible=1;marginBottom=0;whiteSpace=wrap;html=1;" vertex="1" parent="1">
          <mxGeometry x="-115" y="-350" width="364" height="214" as="geometry" />
        </mxCell>
        <mxCell id="CTEW_f1p-4XAKWupYN5k-29" value="&lt;div&gt;- jsonnetVM: *jsonnet.VM&lt;/div&gt;&lt;div&gt;- templateFiles: map[string]string&lt;/div&gt;&lt;div&gt;- configValues: map[string]interface{}&lt;/div&gt;" style="text;strokeColor=none;fillColor=none;align=left;verticalAlign=top;spacingLeft=4;spacingRight=4;overflow=hidden;rotatable=0;points=[[0,0.5],[1,0.5]];portConstraint=eastwest;whiteSpace=wrap;html=1;" vertex="1" parent="CTEW_f1p-4XAKWupYN5k-28">
          <mxGeometry y="29" width="364" height="60" as="geometry" />
        </mxCell>
        <mxCell id="CTEW_f1p-4XAKWupYN5k-30" value="" style="line;strokeWidth=1;fillColor=none;align=left;verticalAlign=middle;spacingTop=-1;spacingLeft=3;spacingRight=3;rotatable=0;labelPosition=right;points=[];portConstraint=eastwest;strokeColor=inherit;" vertex="1" parent="CTEW_f1p-4XAKWupYN5k-28">
          <mxGeometry y="89" width="364" height="11" as="geometry" />
        </mxCell>
        <mxCell id="CTEW_f1p-4XAKWupYN5k-33" value="&lt;div&gt;+ loadConfigFiles(baseDir:string):map[string]string&lt;/div&gt;&lt;div&gt;+ goTmplRender(tmplContent: string): void&lt;/div&gt;&lt;div&gt;+ registerNativeFuncs(vm: *jsonnet.VM): void&lt;/div&gt;&lt;div&gt;+ renderMainJsonnetFile(templateFiles: map[string]string):string&lt;/div&gt;&lt;div&gt;+ buildKubeResourcesByJsonStr(...): map[string][]byte&lt;/div&gt;" style="text;strokeColor=none;fillColor=none;align=left;verticalAlign=top;spacingLeft=4;spacingRight=4;overflow=hidden;rotatable=0;points=[[0,0.5],[1,0.5]];portConstraint=eastwest;whiteSpace=wrap;html=1;" vertex="1" parent="CTEW_f1p-4XAKWupYN5k-28">
          <mxGeometry y="100" width="364" height="114" as="geometry" />
        </mxCell>
        <mxCell id="CTEW_f1p-4XAKWupYN5k-43" value="ChartRepository" style="swimlane;fontStyle=1;align=center;verticalAlign=top;childLayout=stackLayout;horizontal=1;startSize=29;horizontalStack=0;resizeParent=1;resizeParentMax=0;resizeLast=0;collapsible=1;marginBottom=0;whiteSpace=wrap;html=1;" vertex="1" parent="1">
          <mxGeometry x="355" y="-762.5" width="246" height="170" as="geometry" />
        </mxCell>
        <mxCell id="CTEW_f1p-4XAKWupYN5k-44" value="- repositoryUrl:string&lt;br&gt;- chartName:string&lt;br&gt;- chartVersion:string&lt;br&gt;" style="text;strokeColor=none;fillColor=none;align=left;verticalAlign=top;spacingLeft=4;spacingRight=4;overflow=hidden;rotatable=0;points=[[0,0.5],[1,0.5]];portConstraint=eastwest;whiteSpace=wrap;html=1;" vertex="1" parent="CTEW_f1p-4XAKWupYN5k-43">
          <mxGeometry y="29" width="246" height="54" as="geometry" />
        </mxCell>
        <mxCell id="CTEW_f1p-4XAKWupYN5k-45" value="" style="line;strokeWidth=1;fillColor=none;align=left;verticalAlign=middle;spacingTop=-1;spacingLeft=3;spacingRight=3;rotatable=0;labelPosition=right;points=[];portConstraint=eastwest;strokeColor=inherit;" vertex="1" parent="CTEW_f1p-4XAKWupYN5k-43">
          <mxGeometry y="83" width="246" height="12" as="geometry" />
        </mxCell>
        <mxCell id="CTEW_f1p-4XAKWupYN5k-46" value="&lt;div&gt;+ UploadChart(chartData: []byte): error&lt;/div&gt;&lt;div&gt;+ DownloadChart():([]byte,error)&lt;/div&gt;&lt;div&gt;+ ListCharts(): []string&lt;/div&gt;&lt;div&gt;+ GetChartInfo(): map[string]string&lt;/div&gt;&lt;div&gt;&lt;br&gt;&lt;/div&gt;" style="text;strokeColor=none;fillColor=none;align=left;verticalAlign=top;spacingLeft=4;spacingRight=4;overflow=hidden;rotatable=0;points=[[0,0.5],[1,0.5]];portConstraint=eastwest;whiteSpace=wrap;html=1;" vertex="1" parent="CTEW_f1p-4XAKWupYN5k-43">
          <mxGeometry y="95" width="246" height="75" as="geometry" />
        </mxCell>
        <mxCell id="CTEW_f1p-4XAKWupYN5k-58" value="Use" style="endArrow=open;endSize=12;dashed=1;html=1;rounded=0;exitX=1;exitY=0.5;exitDx=0;exitDy=0;entryX=0;entryY=0.5;entryDx=0;entryDy=0;edgeStyle=orthogonalEdgeStyle;" edge="1" parent="1" source="CTEW_f1p-4XAKWupYN5k-19" target="CTEW_f1p-4XAKWupYN5k-68">
          <mxGeometry width="160" relative="1" as="geometry">
            <mxPoint x="269" y="-106" as="sourcePoint" />
            <mxPoint x="429" y="-106" as="targetPoint" />
          </mxGeometry>
        </mxCell>
        <mxCell id="CTEW_f1p-4XAKWupYN5k-59" value="&lt;p style=&quot;margin:0px;margin-top:4px;text-align:center;&quot;&gt;&lt;i&gt;&amp;lt;&amp;lt;Interface&amp;gt;&amp;gt;&lt;/i&gt;&lt;br&gt;&lt;b&gt;IChartRespository&lt;/b&gt;&lt;/p&gt;&lt;hr size=&quot;1&quot;&gt;&lt;p style=&quot;margin:0px;margin-left:4px;&quot;&gt;&lt;br&gt;&lt;/p&gt;&lt;hr size=&quot;1&quot;&gt;&lt;div style=&quot;border-color: var(--border-color);&quot;&gt;+ UploadChart(chartData: []byte): error&lt;/div&gt;&lt;div style=&quot;border-color: var(--border-color);&quot;&gt;+ DownloadChart():([]byte,error)&lt;/div&gt;&lt;div style=&quot;border-color: var(--border-color);&quot;&gt;+ ListCharts(): []string&lt;/div&gt;&lt;div style=&quot;border-color: var(--border-color);&quot;&gt;+ GetChartInfo(): map[string]string&lt;/div&gt;" style="verticalAlign=top;align=left;overflow=fill;fontSize=12;fontFamily=Helvetica;html=1;whiteSpace=wrap;" vertex="1" parent="1">
          <mxGeometry x="538" y="-550" width="211" height="140" as="geometry" />
        </mxCell>
        <mxCell id="CTEW_f1p-4XAKWupYN5k-63" value="Use" style="endArrow=open;endSize=12;dashed=1;html=1;rounded=0;exitX=0.5;exitY=0;exitDx=0;exitDy=0;entryX=0.5;entryY=1;entryDx=0;entryDy=0;" edge="1" parent="1" source="CTEW_f1p-4XAKWupYN5k-25" target="CTEW_f1p-4XAKWupYN5k-68">
          <mxGeometry width="160" relative="1" as="geometry">
            <mxPoint x="420" y="-421" as="sourcePoint" />
            <mxPoint x="580" y="-421" as="targetPoint" />
          </mxGeometry>
        </mxCell>
        <mxCell id="CTEW_f1p-4XAKWupYN5k-64" value="" style="endArrow=diamondThin;endFill=1;endSize=24;html=1;rounded=0;entryX=0.5;entryY=0;entryDx=0;entryDy=0;exitX=0.5;exitY=1;exitDx=0;exitDy=0;" edge="1" parent="1" source="CTEW_f1p-4XAKWupYN5k-1" target="CTEW_f1p-4XAKWupYN5k-19">
          <mxGeometry width="160" relative="1" as="geometry">
            <mxPoint x="178" y="-687" as="sourcePoint" />
            <mxPoint x="338" y="-687" as="targetPoint" />
          </mxGeometry>
        </mxCell>
        <mxCell id="CTEW_f1p-4XAKWupYN5k-65" value="" style="endArrow=block;dashed=1;endFill=0;endSize=12;html=1;rounded=0;exitX=0.462;exitY=1.016;exitDx=0;exitDy=0;exitPerimeter=0;entryX=0.5;entryY=0;entryDx=0;entryDy=0;" edge="1" parent="1" source="CTEW_f1p-4XAKWupYN5k-46" target="CTEW_f1p-4XAKWupYN5k-59">
          <mxGeometry width="160" relative="1" as="geometry">
            <mxPoint x="417" y="-679" as="sourcePoint" />
            <mxPoint x="966.5" y="-653" as="targetPoint" />
          </mxGeometry>
        </mxCell>
        <mxCell id="CTEW_f1p-4XAKWupYN5k-66" value="name" style="endArrow=block;endFill=1;html=1;edgeStyle=orthogonalEdgeStyle;align=left;verticalAlign=top;rounded=0;exitX=0;exitY=0.5;exitDx=0;exitDy=0;entryX=1.002;entryY=-0.016;entryDx=0;entryDy=0;entryPerimeter=0;" edge="1" parent="1" source="CTEW_f1p-4XAKWupYN5k-25" target="CTEW_f1p-4XAKWupYN5k-33">
          <mxGeometry x="-1" relative="1" as="geometry">
            <mxPoint x="719" y="-242.5" as="sourcePoint" />
            <mxPoint x="879" y="-242.5" as="targetPoint" />
          </mxGeometry>
        </mxCell>
        <mxCell id="CTEW_f1p-4XAKWupYN5k-67" value="1" style="edgeLabel;resizable=0;html=1;align=left;verticalAlign=bottom;" connectable="0" vertex="1" parent="CTEW_f1p-4XAKWupYN5k-66">
          <mxGeometry x="-1" relative="1" as="geometry" />
        </mxCell>
        <mxCell id="CTEW_f1p-4XAKWupYN5k-68" value="&lt;p style=&quot;margin:0px;margin-top:4px;text-align:center;&quot;&gt;&lt;i&gt;&amp;lt;&amp;lt;Interface&amp;gt;&amp;gt;&lt;/i&gt;&lt;br&gt;&lt;b&gt;IChart Source&lt;/b&gt;&lt;/p&gt;&lt;hr size=&quot;1&quot;&gt;&lt;p style=&quot;margin:0px;margin-left:4px;&quot;&gt;&lt;br&gt;&lt;/p&gt;&lt;hr size=&quot;1&quot;&gt;&lt;div style=&quot;border-color: var(--border-color);&quot;&gt;+ GetChart(): Chart&lt;/div&gt;&lt;div style=&quot;border-color: var(--border-color);&quot;&gt;&lt;br&gt;&lt;/div&gt;" style="verticalAlign=top;align=left;overflow=fill;fontSize=12;fontFamily=Helvetica;html=1;whiteSpace=wrap;" vertex="1" parent="1">
          <mxGeometry x="249" y="-527" width="197" height="98" as="geometry" />
        </mxCell>
        <mxCell id="CTEW_f1p-4XAKWupYN5k-70" value="" style="endArrow=block;endSize=16;endFill=0;html=1;rounded=0;exitX=0;exitY=0.5;exitDx=0;exitDy=0;entryX=1;entryY=0.5;entryDx=0;entryDy=0;" edge="1" parent="1" source="CTEW_f1p-4XAKWupYN5k-59" target="CTEW_f1p-4XAKWupYN5k-68">
          <mxGeometry width="160" relative="1" as="geometry">
            <mxPoint x="422" y="-437" as="sourcePoint" />
            <mxPoint x="580" y="-437" as="targetPoint" />
          </mxGeometry>
        </mxCell>
      </root>
    </mxGraphModel>
  </diagram>
</mxfile>
